<svg width="900" height="380" xmlns="http://www.w3.org/2000/svg" version="1.1">
 <title>EPD</title>

 <g>
  <title>Layer 1</title>
  <g id="svg_2">
   <path fill="#41A116" d="m104.55076,250.71247c5.6766,-79.01679 61.70327,-140.94924 140.73695,-143.13255l0.26379,26.32117c-85.26319,15.49955 -106.49901,78.2479 -109.49892,116.81056l0,126.43828l-31.50192,0l0.0001,-126.43747l0,0.00001z" id="svg_621"/>
   <path id="svg_1" d="m165.6339,234.07101c8.095,-58.22157 60.72951,-81.94687 79.74106,-78.59913l0.17652,164.33011c-0.43666,22.43783 -11.67918,53.85468 -56.5059,57.34797l-23.41168,0l0,-143.07895z" fill="#0F8E80"/>
   <path id="svg_5" d="m80.58393,229.64197c1.49874,-1.55913 -31.6399,-39.48083 -79.90883,-33.78558l0.43976,135.60288c1.74002,28.30127 10.36765,36.63003 34.62394,46.30044l45.20131,-0.08148c-0.35729,-49.02521 0.00111,-99.01103 -0.35618,-148.03625l0,-0.00001z" fill="#071F42"/>
   <path id="svg_7" d="m245.5515,79.19744l-0.21805,-36.39303c-0.60242,-15.47966 -8.96826,-36.31818 -47.25739,-42.80441l-38.44405,0.03017l-0.00423,107.89756c25.6364,-18.04494 56.18981,-27.34854 85.92372,-28.73029z" fill="#41A116"/>
   <path id="svg_11" d="m1.11487,196.56363c53.32824,4.81619 61.12401,13.44269 80.10647,32.69161c1.23325,-23.88665 22.92094,-82.77311 75.9721,-119.38697l-0.03958,-109.86827l-157.15386,0.05489l1.11487,196.50874z" fill="#117EAD"/>
  </g>
  <text fill="#071F42" x="252.69942" y="336.4005" id="svg_8" stroke-width="0" font-size="250" font-family="'Karla'" text-anchor="start" xml:space="preserve" transform="matrix(1.26752, 0, 0, 1.21367, -74.4245, -155.042)" font-style="normal" font-weight="bold">EPD</text>
  <text fill="#000000" x="275.93219" y="321.39287" id="svg_10" stroke-width="0" font-size="65" font-family="'Asap'" text-anchor="start" xml:space="preserve" font-weight="bold">EASY</text>
  <text fill="#117EAD" x="452.11971" y="321.39287" id="svg_12" stroke-width="0" font-size="65" font-family="'Asap'" text-anchor="start" xml:space="preserve" font-weight="bold">PRODIGITAL</text>
 </g>
</svg>